<svg width="81" height="70" viewBox="0 0 81 70" fill="none" xmlns="http://www.w3.org/2000/svg">
<path d="M80.6875 0.46875C81 1.09375 81 1.875 80.5312 2.34375L51.7812 27.1875C51.3125 27.6562 50.5312 27.6562 50.0625 27.1875L30.8438 7.96875L2.875 29.8438C2.40625 30.1562 1.625 30.1562 1.15625 29.5312C0.6875 29.0625 0.84375 28.2812 1.46875 27.8125L30.2188 5.3125C30.6875 5 31.3125 5 31.7812 5.46875L51 24.6875L78.8125 0.3125C79.4375 0 80.2188 0 80.6875 0.46875ZM15.8438 50V65C15.8438 67.8125 13.6562 70 10.8438 70C8.1875 70 5.84375 67.8125 5.84375 65V50C5.84375 47.3438 8.1875 45 10.8438 45C13.6562 45 15.8438 47.3438 15.8438 50ZM13.3438 65V50C13.3438 48.75 12.25 47.5 10.8438 47.5C9.59375 47.5 8.34375 48.75 8.34375 50V65C8.34375 66.4062 9.59375 67.5 10.8438 67.5C12.25 67.5 13.3438 66.4062 13.3438 65ZM25.8438 35C25.8438 32.3438 28.1875 30 30.8438 30C33.6562 30 35.8438 32.3438 35.8438 35V65C35.8438 67.8125 33.6562 70 30.8438 70C28.1875 70 25.8438 67.8125 25.8438 65V35ZM28.3438 35V65C28.3438 66.4062 29.5938 67.5 30.8438 67.5C32.25 67.5 33.3438 66.4062 33.3438 65V35C33.3438 33.75 32.25 32.5 30.8438 32.5C29.5938 32.5 28.3438 33.75 28.3438 35ZM56 45V65C56 67.8125 53.6562 70 51 70C48.1875 70 46 67.8125 46 65V45C46 42.3438 48.1875 40 51 40C53.6562 40 56 42.3438 56 45ZM53.5 65V45C53.5 43.75 52.25 42.5 51 42.5C49.5938 42.5 48.5 43.75 48.5 45V65C48.5 66.4062 49.5938 67.5 51 67.5C52.25 67.5 53.5 66.4062 53.5 65ZM66 35C66 32.3438 68.1875 30 71 30C73.6562 30 76 32.3438 76 35V65C76 67.8125 73.6562 70 71 70C68.1875 70 66 67.8125 66 65V35ZM68.5 35V65C68.5 66.4062 69.5938 67.5 71 67.5C72.25 67.5 73.5 66.4062 73.5 65V35C73.5 33.75 72.25 32.5 71 32.5C69.5938 32.5 68.5 33.75 68.5 35Z" fill="#7D3ED1"/>
</svg>
