<svg width="81" height="81" viewBox="0 0 81 81" fill="none" xmlns="http://www.w3.org/2000/svg">
<path d="M36.9375 56.4062L36.7812 57.0312C36.3125 58.9062 34.9062 60.4688 33.0312 60.9375L32.4062 61.0938C31.625 61.25 31.3125 61.4062 31 61.5625L30.8438 78.75C30.8438 79.2188 30.6875 79.6875 30.375 79.8438C29.9062 80.1562 29.4375 80.1562 29.125 79.8438L21 75.3125L12.7188 79.8438C12.5625 80 12.4062 80 12.25 80C11.9375 80 11.7812 80 11.4688 79.8438C11.1562 79.6875 11 79.2188 11 78.75V61.5625C10.5312 61.4062 10.2188 61.25 9.4375 61.0938L8.96875 60.9375C6.9375 60.4688 5.53125 58.9062 5.0625 57.0312L4.90625 56.4062C4.28125 54.5312 4.28125 54.5312 2.875 52.9688L2.5625 52.6562C1.15625 51.25 0.53125 49.2188 1.15625 47.1875V46.875C1.46875 45.9375 1.625 45.4688 1.625 45C1.625 44.6875 1.46875 44.2188 1.15625 43.2812V42.9688C0.53125 40.9375 1.15625 38.9062 2.5625 37.5L3.03125 37.0312C4.28125 35.625 4.28125 35.625 4.90625 33.75L5.0625 33.125C5.53125 31.25 6.9375 29.6875 8.96875 29.2188L9.4375 29.0625C11.3125 28.5938 11.3125 28.5938 12.7188 27.1875L13.1875 26.7188C14.5938 25.3125 16.625 24.6875 18.5 25.3125L18.9688 25.4688C20.8438 25.9375 20.8438 25.9375 22.875 25.4688L23.3438 25.3125C25.2188 24.6875 27.25 25.3125 28.6562 26.7188L29.125 27.1875C30.5312 28.5938 30.5312 28.5938 32.4062 29.0625L33.0312 29.2188C34.9062 29.6875 36.3125 31.25 36.7812 33.125L36.9375 33.75C37.5625 35.625 37.5625 35.625 38.9688 37.1875L39.2812 37.5C40.6875 38.9062 41.3125 40.9375 40.6875 42.9688V43.2812C40.375 44.0625 40.2188 44.6875 40.2188 45.1562C40.2188 45.4688 40.375 46.0938 40.6875 46.875V47.1875C41.3125 49.2188 40.6875 51.25 39.2812 52.6562L38.8125 53.125C37.5625 54.5312 37.5625 54.5312 36.9375 56.4062ZM28.3438 76.7188V63.5938C27.25 64.5312 26 65.1562 24.5938 65.1562C24.125 65.1562 23.6562 65 23.1875 64.8438L22.7188 64.6875C20.8438 64.2188 20.8438 64.2188 18.9688 64.6875L18.3438 64.8438C16.625 65.3125 14.5938 64.8438 13.3438 63.5938V76.7188L20.2188 72.8125C20.5312 72.5 21 72.5 21.4688 72.8125L28.3438 76.7188ZM34.5938 55.7812C35.2188 53.2812 35.375 53.125 37.0938 51.25L37.5625 50.9375C38.3438 50.1562 38.6562 48.9062 38.3438 47.8125L38.1875 47.5C37.875 46.4062 37.7188 45.7812 37.7188 45C37.7188 44.375 37.875 43.75 38.1875 42.6562L38.3438 42.3438C38.6562 41.25 38.3438 40 37.5625 39.2188L37.0938 38.9062C35.375 37.0312 35.2188 36.875 34.5938 34.375L34.4375 33.75C34.125 32.8125 33.3438 31.875 32.25 31.5625L31.7812 31.4062C29.2812 30.7812 29.125 30.625 27.4062 28.9062L26.9375 28.4375C26.1562 27.6562 25.0625 27.3438 23.9688 27.6562L23.5 27.8125C21 28.4375 20.8438 28.4375 18.3438 27.8125L17.875 27.6562C16.7812 27.3438 15.6875 27.6562 14.9062 28.4375L14.4375 28.9062C12.7188 30.625 12.5625 30.7812 10.0625 31.4062L9.59375 31.5625C8.5 31.875 7.71875 32.8125 7.40625 33.75L7.25 34.375C6.625 36.875 6.46875 37.0312 4.75 38.9062L4.28125 39.2188C3.5 40 3.1875 41.25 3.5 42.3438L3.65625 42.6562C3.96875 43.75 4.125 44.375 4.125 45C4.125 45.7812 3.96875 46.4062 3.65625 47.5L3.5 47.8125C3.1875 48.9062 3.5 50.1562 4.28125 50.9375L4.75 51.25C6.46875 53.125 6.625 53.2812 7.25 55.7812L7.40625 56.25C7.71875 57.3438 8.5 58.2812 9.59375 58.5938L10.0625 58.75C12.5625 59.375 12.7188 59.5312 14.5938 61.25L14.9062 61.7188C15.6875 62.5 16.7812 62.8125 17.875 62.5L18.3438 62.3438C19.5938 62.0312 20.2188 61.875 21 61.875C21.625 61.875 22.25 62.0312 23.5 62.3438L23.9688 62.5C25.0625 62.8125 26.1562 62.5 26.9375 61.7188L27.4062 61.25C29.125 59.5312 29.2812 59.375 31.7812 58.75L32.25 58.5938C33.3438 58.2812 34.125 57.3438 34.4375 56.4062L34.5938 55.7812ZM79.4375 23.5938C80.375 24.5312 81 25.7812 80.8438 27.1875V69.8438C80.8438 75.3125 76.3125 79.8438 70.8438 79.8438H37.25C36.4688 79.8438 35.8438 79.2188 35.8438 78.5938C35.8438 77.8125 36.4688 77.3438 37.25 77.3438H70.8438C74.9062 77.3438 78.3438 73.9062 78.3438 69.8438V27.3438H59.5938C56.1562 27.3438 53.3438 24.5312 53.3438 21.0938V2.5H30.8438C26.625 2.5 23.3438 5.78125 23.3438 10V18.75C23.3438 19.375 22.7188 20 22.0938 20C21.3125 20 20.8438 19.375 20.8438 18.75V10C20.8438 4.53125 25.2188 0 30.8438 0H53.8125C55.2188 0 56.4688 0.625 57.4062 1.5625L79.4375 23.5938ZM59.5938 25V25.1562H77.25L55.8438 3.59375V21.25C55.8438 23.2812 57.4062 25 59.5938 25Z" fill="#7D3ED1"/>
</svg>
