<svg width="66" height="80" viewBox="0 0 66 80" fill="none" xmlns="http://www.w3.org/2000/svg">
<path d="M34.25 50C34.25 50.7812 33.625 51.25 32.8438 51.25C32.2188 51.25 31.5938 50.7812 31.5938 50V28.75C31.5938 28.125 32.2188 27.5 32.8438 27.5C33.625 27.5 34.25 28.125 34.25 28.75V50ZM20.3438 1.25C20.3438 0.625 20.9688 0 21.5938 0H44.25C44.875 0 45.5 0.625 45.5 1.25C45.5 2.03125 44.875 2.5 44.25 2.5H34.25V15.1562C42.8438 15.4688 50.6562 19.0625 56.2812 25L62.0625 19.2188C62.5312 18.75 63.3125 18.75 63.7812 19.2188C64.25 19.6875 64.25 20.4688 63.7812 20.9375L58 26.875C62.6875 32.5 65.5 39.6875 65.5 47.5C65.5 65.4688 50.8125 80 33 80C15.0312 80 0.5 65.4688 0.5 47.5C0.5 30 14.25 15.7812 31.75 15.1562V2.5H21.75C20.9688 2.5 20.5 2.03125 20.5 1.25H20.3438ZM32.8438 77.5C49.5625 77.5 63 64.0625 63 47.5C63 30.9375 49.5625 17.5 32.8438 17.5C16.2812 17.5 2.84375 30.9375 2.84375 47.5C2.84375 64.0625 16.2812 77.5 32.8438 77.5Z" fill="#7D3ED1"/>
</svg>
