<svg width="123" height="27" viewBox="0 0 123 27" fill="none" xmlns="http://www.w3.org/2000/svg">
<path d="M2.42857 15.7424H0C0.0380952 16.6567 0.228571 17.4376 0.571429 18.0852C0.914286 18.7138 1.37143 19.2281 1.94286 19.6281C2.51429 20.009 3.17143 20.2852 3.91429 20.4567C4.65714 20.6281 5.4381 20.7138 6.25714 20.7138C7 20.7138 7.74286 20.6376 8.48571 20.4852C9.24762 20.3519 9.92381 20.1043 10.5143 19.7424C11.1238 19.3805 11.6095 18.9043 11.9714 18.3138C12.3524 17.7233 12.5429 16.9805 12.5429 16.0852C12.5429 15.3805 12.4 14.79 12.1143 14.3138C11.8476 13.8376 11.4857 13.4471 11.0286 13.1424C10.5905 12.8186 10.0762 12.5614 9.48571 12.3709C8.91429 12.1805 8.32381 12.0186 7.71429 11.8852C7.14286 11.7519 6.57143 11.6281 6 11.5138C5.42857 11.3805 4.91429 11.2281 4.45714 11.0567C4 10.8662 3.61905 10.6376 3.31429 10.3709C3.02857 10.0852 2.88571 9.73285 2.88571 9.3138C2.88571 8.93285 2.98095 8.62809 3.17143 8.39951C3.3619 8.15189 3.60952 7.96142 3.91429 7.82808C4.21905 7.6757 4.55238 7.57094 4.91429 7.5138C5.29524 7.45666 5.66667 7.42808 6.02857 7.42808C6.42857 7.42808 6.81905 7.4757 7.2 7.57094C7.6 7.64713 7.96191 7.78047 8.28571 7.97094C8.60952 8.16142 8.87619 8.41856 9.08571 8.74237C9.29524 9.04713 9.41905 9.43761 9.45714 9.9138H11.8857C11.8286 9.01856 11.6381 8.2757 11.3143 7.68523C10.9905 7.0757 10.5524 6.59951 10 6.25666C9.46667 5.89475 8.84762 5.64713 8.14286 5.5138C7.4381 5.36142 6.66667 5.28523 5.82857 5.28523C5.18095 5.28523 4.52381 5.37094 3.85714 5.54237C3.20952 5.69475 2.61905 5.94237 2.08571 6.28523C1.57143 6.60904 1.14286 7.03761 0.8 7.57094C0.476191 8.10427 0.314286 8.74237 0.314286 9.48523C0.314286 10.4376 0.552381 11.1805 1.02857 11.7138C1.50476 12.2471 2.09524 12.6662 2.8 12.9709C3.52381 13.2567 4.30476 13.4852 5.14286 13.6567C5.98095 13.809 6.75238 13.99 7.45714 14.1995C8.18095 14.39 8.78095 14.6471 9.25714 14.9709C9.73333 15.2948 9.97143 15.7709 9.97143 16.3995C9.97143 16.8567 9.85714 17.2376 9.62857 17.5424C9.4 17.8281 9.10476 18.0471 8.74286 18.1995C8.4 18.3519 8.01905 18.4567 7.6 18.5138C7.18095 18.5709 6.78095 18.5995 6.4 18.5995C5.90476 18.5995 5.41905 18.5519 4.94286 18.4567C4.48571 18.3614 4.06667 18.209 3.68571 17.9995C3.32381 17.7709 3.02857 17.4757 2.8 17.1138C2.57143 16.7328 2.44762 16.2757 2.42857 15.7424Z" fill="#7D3ED1"/>
<path d="M16.7143 13.1424C16.7143 12.4186 16.7905 11.7138 16.9429 11.0281C17.0952 10.3424 17.3429 9.73285 17.6857 9.19951C18.0286 8.66618 18.4857 8.23761 19.0571 7.9138C19.6286 7.58999 20.3238 7.42808 21.1429 7.42808C21.981 7.42808 22.6952 7.58999 23.2857 7.9138C23.8762 8.21856 24.3524 8.62808 24.7143 9.14237C25.0952 9.65666 25.3714 10.2567 25.5429 10.9424C25.7143 11.609 25.8 12.3043 25.8 13.0281C25.8 13.7138 25.7143 14.39 25.5429 15.0567C25.3905 15.7233 25.1333 16.3233 24.7714 16.8567C24.4095 17.3709 23.9429 17.79 23.3714 18.1138C22.8 18.4376 22.1048 18.5995 21.2857 18.5995C20.5048 18.5995 19.819 18.4471 19.2286 18.1424C18.6571 17.8376 18.181 17.4281 17.8 16.9138C17.4381 16.3995 17.1619 15.8186 16.9714 15.1709C16.8 14.5043 16.7143 13.8281 16.7143 13.1424ZM28.1429 26.0281V5.62808H25.7143V7.59951H25.6571C25.3905 7.16142 25.0571 6.79951 24.6571 6.5138C24.2762 6.20904 23.8667 5.97094 23.4286 5.79951C22.9905 5.60904 22.5524 5.4757 22.1143 5.39951C21.6762 5.32332 21.2667 5.28523 20.8857 5.28523C19.7619 5.28523 18.7714 5.49475 17.9143 5.9138C17.0762 6.3138 16.3714 6.86618 15.8 7.57094C15.2476 8.25666 14.8286 9.06618 14.5429 9.99951C14.2762 10.9328 14.1429 11.9233 14.1429 12.9709C14.1429 14.0186 14.2857 15.009 14.5714 15.9424C14.8571 16.8757 15.2762 17.6948 15.8286 18.3995C16.4 19.1043 17.1048 19.6662 17.9429 20.0852C18.8 20.5043 19.8 20.7138 20.9429 20.7138C21.9714 20.7138 22.9143 20.5328 23.7714 20.1709C24.6286 19.809 25.2571 19.2186 25.6571 18.3995H25.7143V26.0281H28.1429Z" fill="#7D3ED1"/>
<path d="M43.8221 20.3995V5.62808H41.3935V13.9709C41.3935 14.6376 41.2983 15.2567 41.1078 15.8281C40.9364 16.3805 40.6697 16.8662 40.3078 17.2852C39.9459 17.7043 39.4888 18.0281 38.9364 18.2567C38.403 18.4852 37.7649 18.5995 37.0221 18.5995C36.0888 18.5995 35.3554 18.3328 34.8221 17.7995C34.2888 17.2662 34.0221 16.5424 34.0221 15.6281V5.62808H31.5935V15.3424C31.5935 16.1424 31.6697 16.8757 31.8221 17.5424C31.9935 18.19 32.2792 18.7519 32.6792 19.2281C33.0792 19.7043 33.603 20.0757 34.2507 20.3424C34.8983 20.59 35.7078 20.7138 36.6792 20.7138C37.7649 20.7138 38.7078 20.5043 39.5078 20.0852C40.3078 19.6471 40.965 18.9709 41.4792 18.0567H41.5364V20.3995H43.8221Z" fill="#7D3ED1"/>
<path d="M60.2696 20.3424C59.8506 20.59 59.2696 20.7138 58.5268 20.7138C57.8982 20.7138 57.3934 20.5424 57.0125 20.1995C56.6506 19.8376 56.4696 19.2567 56.4696 18.4567C55.803 19.2567 55.022 19.8376 54.1268 20.1995C53.2506 20.5424 52.2982 20.7138 51.2696 20.7138C50.603 20.7138 49.9649 20.6376 49.3554 20.4852C48.7649 20.3328 48.2506 20.0948 47.8125 19.7709C47.3744 19.4471 47.022 19.0281 46.7554 18.5138C46.5077 17.9805 46.3839 17.3424 46.3839 16.5995C46.3839 15.7614 46.5268 15.0757 46.8125 14.5424C47.0982 14.009 47.4696 13.5805 47.9268 13.2567C48.403 12.9138 48.9363 12.6567 49.5268 12.4852C50.1363 12.3138 50.7554 12.1709 51.3839 12.0567C52.0506 11.9233 52.6792 11.8281 53.2696 11.7709C53.8792 11.6948 54.4125 11.5995 54.8696 11.4852C55.3268 11.3519 55.6887 11.1709 55.9554 10.9424C56.222 10.6948 56.3554 10.3424 56.3554 9.88523C56.3554 9.35189 56.2506 8.92332 56.0411 8.59951C55.8506 8.2757 55.5934 8.02808 55.2696 7.85666C54.9649 7.68523 54.6125 7.57094 54.2125 7.5138C53.8315 7.45666 53.4506 7.42808 53.0696 7.42808C52.0411 7.42808 51.1839 7.62808 50.4982 8.02808C49.8125 8.40904 49.4411 9.14237 49.3839 10.2281H46.9554C46.9935 9.3138 47.1839 8.54237 47.5268 7.9138C47.8696 7.28523 48.3268 6.78047 48.8982 6.39951C49.4696 5.99951 50.1173 5.7138 50.8411 5.54237C51.5839 5.37094 52.3744 5.28523 53.2125 5.28523C53.8792 5.28523 54.5363 5.33285 55.1839 5.42808C55.8506 5.52332 56.4506 5.72332 56.9839 6.02808C57.5173 6.3138 57.9458 6.72332 58.2696 7.25666C58.5934 7.78999 58.7554 8.48523 58.7554 9.34237V16.9424C58.7554 17.5138 58.7839 17.9328 58.8411 18.1995C58.9173 18.4662 59.1458 18.5995 59.5268 18.5995C59.7363 18.5995 59.9839 18.5519 60.2696 18.4567V20.3424ZM56.3268 12.7709C56.022 12.9995 55.622 13.1709 55.1268 13.2852C54.6315 13.3805 54.1077 13.4662 53.5554 13.5424C53.022 13.5995 52.4792 13.6757 51.9268 13.7709C51.3744 13.8471 50.8792 13.9805 50.4411 14.1709C50.003 14.3614 49.6411 14.6376 49.3554 14.9995C49.0887 15.3424 48.9554 15.8186 48.9554 16.4281C48.9554 16.8281 49.0315 17.1709 49.1839 17.4567C49.3554 17.7233 49.5649 17.9424 49.8125 18.1138C50.0792 18.2852 50.3839 18.409 50.7268 18.4852C51.0696 18.5614 51.4315 18.5995 51.8125 18.5995C52.6125 18.5995 53.2982 18.4948 53.8696 18.2852C54.4411 18.0567 54.9077 17.7805 55.2696 17.4567C55.6315 17.1138 55.8982 16.7519 56.0696 16.3709C56.2411 15.9709 56.3268 15.5995 56.3268 15.2567V12.7709Z" fill="#7D3ED1"/>
<path d="M62.1585 5.62808V20.3995H64.5871V13.8281C64.5871 12.8757 64.6823 12.0376 64.8728 11.3138C65.0632 10.5709 65.368 9.94237 65.787 9.42808C66.2061 8.9138 66.7585 8.52332 67.4442 8.25666C68.1299 7.98999 68.9585 7.85666 69.9299 7.85666V5.28523C68.6156 5.24713 67.5299 5.5138 66.6728 6.08523C65.8156 6.65666 65.0918 7.54237 64.5013 8.74237H64.4442V5.62808H62.1585Z" fill="#7D3ED1"/>
<path d="M81.2279 11.5995H72.7422C72.7803 11.0281 72.9041 10.4948 73.1136 9.99951C73.3231 9.48523 73.6088 9.03761 73.9707 8.65666C74.3327 8.2757 74.7612 7.98046 75.2565 7.77094C75.7708 7.54237 76.3422 7.42808 76.9707 7.42808C77.5803 7.42808 78.1327 7.54237 78.6279 7.77094C79.1422 7.98046 79.5803 8.2757 79.9422 8.65666C80.3231 9.01856 80.6184 9.45666 80.8279 9.97094C81.0565 10.4852 81.1898 11.0281 81.2279 11.5995ZM83.5708 15.7138H81.1708C80.9612 16.6852 80.5231 17.409 79.8565 17.8852C79.2088 18.3614 78.3708 18.5995 77.3422 18.5995C76.5422 18.5995 75.8469 18.4662 75.2565 18.1995C74.666 17.9328 74.1803 17.5805 73.7993 17.1424C73.4184 16.6852 73.1422 16.1709 72.9707 15.5995C72.7993 15.009 72.7231 14.39 72.7422 13.7424H83.7993C83.8374 12.8471 83.7517 11.9043 83.5422 10.9138C83.3517 9.92332 82.9898 9.00904 82.4565 8.17094C81.9422 7.33285 81.2469 6.64713 80.3708 6.1138C79.5136 5.56142 78.4279 5.28523 77.1136 5.28523C76.1041 5.28523 75.1708 5.4757 74.3136 5.85666C73.4755 6.23761 72.7422 6.77094 72.1136 7.45666C71.5041 8.14237 71.0279 8.95189 70.685 9.88523C70.3422 10.8186 70.1708 11.8471 70.1708 12.9709C70.2088 14.0948 70.3708 15.1328 70.6565 16.0852C70.9612 17.0376 71.4089 17.8567 71.9993 18.5424C72.5898 19.2281 73.3136 19.7614 74.1708 20.1424C75.0469 20.5233 76.0755 20.7138 77.2565 20.7138C78.9327 20.7138 80.3231 20.2948 81.4279 19.4567C82.5327 18.6186 83.2469 17.3709 83.5708 15.7138Z" fill="#7D3ED1"/>
<path d="M87.8025 13.1424C87.8025 12.4186 87.8786 11.7138 88.031 11.0281C88.1834 10.3424 88.431 9.73285 88.7739 9.19951C89.1167 8.66618 89.5739 8.23761 90.1453 7.9138C90.7167 7.58999 91.412 7.42808 92.231 7.42808C93.0691 7.42808 93.7834 7.58999 94.3739 7.9138C94.9644 8.21856 95.4405 8.62808 95.8025 9.14237C96.1834 9.65666 96.4596 10.2567 96.631 10.9424C96.8024 11.609 96.8882 12.3043 96.8882 13.0281C96.8882 13.7138 96.8024 14.39 96.631 15.0567C96.4786 15.7233 96.2215 16.3233 95.8596 16.8567C95.4977 17.3709 95.031 17.79 94.4596 18.1138C93.8882 18.4376 93.1929 18.5995 92.3739 18.5995C91.5929 18.5995 90.9072 18.4471 90.3167 18.1424C89.7453 17.8376 89.2691 17.4281 88.8882 16.9138C88.5263 16.3995 88.2501 15.8186 88.0596 15.1709C87.8882 14.5043 87.8025 13.8281 87.8025 13.1424ZM99.231 20.3995V-0.000488281H96.8025V7.59951H96.7453C96.4786 7.16142 96.1453 6.79951 95.7453 6.5138C95.3643 6.20904 94.9548 5.97094 94.5167 5.79951C94.0786 5.60904 93.6405 5.4757 93.2024 5.39951C92.7644 5.32332 92.3548 5.28523 91.9739 5.28523C90.8501 5.28523 89.8596 5.49475 89.0024 5.9138C88.1644 6.3138 87.4596 6.86618 86.8882 7.57094C86.3358 8.25666 85.9167 9.06618 85.631 9.99951C85.3644 10.9328 85.231 11.9233 85.231 12.9709C85.231 14.0186 85.3739 15.009 85.6596 15.9424C85.9453 16.8757 86.3643 17.6948 86.9167 18.3995C87.4882 19.1043 88.1929 19.6662 89.031 20.0852C89.8882 20.5043 90.8882 20.7138 92.031 20.7138C93.0596 20.7138 94.0024 20.5328 94.8596 20.1709C95.7167 19.809 96.3453 19.2186 96.7453 18.3995H96.8025V20.3995H99.231Z" fill="#7D3ED1"/>
<path d="M112.001 3.57038C112.001 4.15548 111.694 4.74398 111.082 5.2135C110.468 5.68368 109.584 5.99895 108.573 5.99895C107.561 5.99895 106.677 5.68368 106.064 5.2135C105.451 4.74398 105.144 4.15548 105.144 3.57038C105.144 2.98528 105.451 2.39679 106.064 1.92727C106.677 1.45709 107.561 1.14181 108.573 1.14181C109.584 1.14181 110.468 1.45709 111.082 1.92727C111.694 2.39679 112.001 2.98528 112.001 3.57038Z" stroke="#7D3ED1" stroke-width="1.71429"/>
<path d="M112.001 10.1418C112.001 10.7269 111.694 11.3154 111.082 11.7849C110.468 12.2551 109.584 12.5704 108.573 12.5704C107.561 12.5704 106.677 12.2551 106.064 11.7849C105.451 11.3154 105.144 10.7269 105.144 10.1418C105.144 9.55669 105.451 8.9682 106.064 8.49868C106.677 8.0285 107.561 7.71322 108.573 7.71322C109.584 7.71322 110.468 8.0285 111.082 8.49868C111.694 8.9682 112.001 9.55669 112.001 10.1418Z" stroke="#7D3ED1" stroke-width="1.71429"/>
<path d="M120.573 3.57038C120.573 4.15548 120.266 4.74398 119.653 5.2135C119.04 5.68368 118.156 5.99895 117.144 5.99895C116.133 5.99895 115.249 5.68368 114.635 5.2135C114.023 4.74398 113.716 4.15548 113.716 3.57038C113.716 2.98528 114.023 2.39679 114.635 1.92727C115.249 1.45709 116.133 1.14181 117.144 1.14181C118.156 1.14181 119.04 1.45709 119.653 1.92727C120.266 2.39679 120.573 2.98528 120.573 3.57038Z" stroke="#7D3ED1" stroke-width="1.71429"/>
<path d="M120.573 10.1418C120.573 10.7269 120.266 11.3154 119.653 11.7849C119.04 12.2551 118.156 12.5704 117.144 12.5704C116.133 12.5704 115.249 12.2551 114.635 11.7849C114.023 11.3154 113.716 10.7269 113.716 10.1418C113.716 9.55669 114.023 8.9682 114.635 8.49868C115.249 8.0285 116.133 7.71322 117.144 7.71322C118.156 7.71322 119.04 8.0285 119.653 8.49868C120.266 8.9682 120.573 9.55669 120.573 10.1418Z" stroke="#7D3ED1" stroke-width="1.71429"/>
</svg>
